<?xml version="1.0" standalone="no"?>
<!DOCTYPE svg PUBLIC "-//W3C//DTD SVG 20010904//EN"
 "http://www.w3.org/TR/2001/REC-SVG-20010904/DTD/svg10.dtd">
<svg version="1.0" xmlns="http://www.w3.org/2000/svg"
 width="1024.000000pt" height="1024.000000pt" viewBox="0 0 1024.000000 1024.000000"
 preserveAspectRatio="xMidYMid meet">

<g transform="translate(0.000000,1024.000000) scale(0.100000,-0.100000)"
fill="#000000" stroke="none">
<path d="M5840 7903 c0 -3 36 -44 81 -91 78 -83 189 -234 189 -259 0 -7 -35
13 -77 44 -191 137 -401 202 -616 191 -102 -6 -235 -34 -220 -48 4 -4 35 -17
68 -30 94 -34 169 -78 227 -132 l53 -49 -40 5 c-288 41 -471 29 -683 -46 -114
-39 -267 -120 -323 -168 l-44 -39 130 -1 c120 0 341 -22 353 -35 3 -3 1 -5 -5
-5 -5 0 -52 -7 -104 -16 -239 -41 -500 -145 -655 -262 -87 -66 -141 -118 -131
-128 3 -3 79 -1 169 6 90 6 195 10 233 8 l70 -3 -75 -29 c-129 -50 -264 -124
-440 -242 -387 -260 -563 -348 -980 -487 -499 -167 -708 -286 -881 -503 -28
-35 -56 -64 -63 -64 -23 0 -290 141 -342 180 -93 70 -136 163 -120 262 9 57
59 160 155 322 46 76 94 162 107 192 59 133 49 289 -27 419 -32 56 -62 95
-152 199 -43 51 -94 123 -114 164 -32 64 -36 82 -40 170 -3 62 0 121 9 165 8
37 11 67 7 67 -15 0 -118 -131 -159 -200 -22 -38 -57 -117 -77 -177 -36 -104
-37 -113 -37 -243 0 -118 3 -143 23 -195 38 -97 102 -185 195 -270 89 -82 136
-153 136 -205 0 -15 -21 -69 -46 -121 -25 -52 -62 -134 -82 -184 -34 -84 -36
-97 -36 -200 0 -130 19 -190 89 -282 51 -68 116 -120 240 -192 131 -77 158
-99 152 -125 -3 -11 -20 -59 -37 -106 -88 -236 -101 -515 -39 -813 12 -56 22
-124 22 -152 0 -73 -35 -146 -99 -204 -45 -42 -67 -53 -156 -80 -220 -68 -231
-82 -253 -313 -17 -174 -30 -231 -78 -331 -55 -117 -161 -238 -332 -380 l-29
-24 30 -16 c16 -8 71 -18 122 -22 101 -8 101 -11 -3 -49 -93 -34 -115 -72
-115 -194 0 -89 10 -151 40 -251 34 -110 35 -111 111 -68 186 103 338 220 425
325 75 91 115 178 169 366 53 184 100 281 168 348 60 59 125 80 317 104 318
38 481 99 671 250 122 97 421 403 489 502 156 223 249 454 300 747 21 120 25
81 10 -114 -22 -284 -85 -479 -226 -694 -51 -79 -103 -138 -228 -262 -142
-140 -167 -170 -203 -240 -53 -103 -93 -224 -100 -302 -10 -102 3 -113 237
-202 195 -75 432 -212 474 -275 9 -14 24 -61 32 -103 26 -123 58 -173 114
-173 18 0 65 58 84 104 7 17 24 -12 42 -73 42 -145 76 -175 217 -191 153 -18
455 -6 480 19 11 11 -254 418 -332 510 -62 74 -171 152 -336 241 -76 41 -158
93 -182 116 -78 74 -61 116 123 289 77 73 160 163 196 212 50 68 66 84 82 80
12 -3 73 -19 136 -35 209 -56 480 -92 695 -92 146 0 385 18 399 31 5 5 -12 43
-41 91 -67 110 -94 164 -136 278 -55 151 -55 179 2 63 64 -131 166 -286 243
-368 157 -168 347 -234 631 -219 l127 7 0 -33 c0 -46 -37 -180 -61 -219 -23
-38 -71 -69 -119 -77 -77 -12 -124 -37 -198 -108 -83 -79 -149 -166 -187 -247
-30 -66 -32 -100 -4 -125 47 -42 371 -24 565 31 192 55 296 125 357 242 55
106 71 178 112 503 9 68 21 130 27 137 30 36 207 -17 325 -98 81 -56 218 -185
251 -236 42 -65 48 -113 28 -222 -14 -73 -15 -99 -6 -133 19 -69 99 -132 145
-114 8 3 27 28 42 55 16 28 31 51 34 51 3 0 16 -45 28 -99 29 -133 49 -160
132 -188 149 -50 443 -67 540 -31 l36 13 -81 127 c-179 281 -366 551 -478 691
-158 196 -199 256 -251 368 -51 109 -76 135 -172 182 -115 57 -522 217 -678
267 -22 7 -35 15 -30 19 4 4 30 25 57 47 56 44 106 116 106 152 0 38 -14 55
-116 142 -203 174 -325 382 -394 670 -29 124 -24 138 14 34 37 -102 91 -205
174 -334 67 -103 227 -265 299 -303 83 -44 191 -67 317 -67 295 0 430 -41 668
-201 223 -150 284 -167 446 -125 110 28 269 85 307 110 61 40 17 97 -132 173
-51 26 -93 48 -93 50 0 1 15 0 33 -3 71 -13 169 -50 307 -116 178 -87 227 -95
309 -53 138 69 373 391 446 610 36 106 29 220 -16 261 -16 15 -36 19 -88 19
-56 -1 -79 -7 -154 -43 -67 -31 -93 -39 -107 -32 -16 9 -15 15 16 98 90 239
60 455 -91 667 -44 61 -111 132 -119 124 -2 -2 7 -46 20 -97 30 -118 40 -251
25 -321 -24 -111 -93 -211 -171 -246 l-37 -17 -169 100 c-269 159 -274 163
-355 242 -87 85 -119 142 -169 295 -74 230 -166 357 -363 497 -58 42 -99 79
-102 91 -3 12 -14 68 -25 124 -44 221 -136 407 -274 551 -70 75 -176 156 -186
145 -13 -14 -117 -276 -145 -363 -14 -47 -29 -92 -31 -100 -3 -8 -30 32 -62
95 -73 139 -108 190 -196 283 -160 169 -428 332 -618 375 -38 8 -68 13 -68 10z
m1666 -1734 c89 -42 183 -132 223 -212 17 -36 31 -67 31 -70 0 -3 -18 0 -40 8
-56 20 -151 87 -195 137 -59 69 -112 168 -89 168 3 0 35 -14 70 -31z m824
-837 c0 -139 -47 -249 -145 -340 -60 -56 -167 -122 -199 -122 -22 0 -92 36
-219 112 -56 33 -154 88 -217 120 l-115 59 85 -5 c47 -3 132 -17 190 -32 140
-36 257 -38 317 -7 66 36 152 113 223 201 36 44 68 81 73 81 4 1 7 -30 7 -67z"/>
</g>
</svg>
